{"glyphs":{"0":{"ha":972,"x_min":0,"x_max":0,"o":"m 483 -22 b 57 596 225 -22 57 221 b 483 1217 57 972 225 1217 b 908 596 740 1217 908 972 b 483 -22 908 221 740 -22 m 483 61 b 651 596 594 61 651 244 b 483 1133 651 949 594 1133 b 314 596 372 1133 314 949 b 483 61 314 244 372 61 "},"1":{"ha":760,"x_min":0,"x_max":0,"o":"m 275 968 b 232 1015 275 1001 263 1015 b 165 1008 207 1015 178 1008 b 139 1040 153 1008 139 1019 b 163 1072 139 1058 149 1068 b 474 1188 244 1094 396 1142 b 496 1194 481 1192 486 1194 b 518 1176 507 1194 518 1189 l 518 154 b 617 60 518 82 564 69 b 642 31 635 57 642 44 b 614 0 642 14 632 0 b 397 8 592 0 507 8 b 179 0 286 8 201 0 b 151 31 161 0 151 14 b 176 60 151 46 158 57 b 275 154 232 69 275 82 l 275 968 "},"2":{"ha":708,"x_min":0,"x_max":0,"o":"m 610 0 b 278 4 554 0 425 4 b -42 0 146 4 21 0 b -65 19 -54 0 -65 7 b -51 47 -65 28 -64 32 b 390 933 253 432 390 694 b 253 1100 390 1051 340 1100 b 61 1001 172 1100 111 1054 b 19 976 46 985 35 976 b -7 1003 6 976 -7 986 b -3 1024 -7 1010 -6 1017 b 329 1217 25 1093 143 1217 b 649 911 529 1217 649 1094 b 193 197 649 693 525 535 l 365 197 b 600 292 521 197 571 215 b 632 319 607 310 617 319 b 658 290 654 319 658 304 b 656 151 658 272 656 221 b 658 35 656 74 658 54 b 610 0 658 7 649 0 "},"3":{"ha":833,"x_min":0,"x_max":0,"o":"m 335 -22 b 81 128 188 -22 81 40 b 160 211 81 183 115 211 b 408 63 258 211 264 63 b 564 344 511 63 564 160 b 396 603 564 514 507 603 b 249 564 318 603 265 564 b 231 597 239 564 231 575 b 251 635 231 619 235 626 b 482 1006 374 696 482 846 b 401 1107 482 1075 457 1107 b 221 1015 333 1107 265 1058 b 163 1003 204 999 181 992 b 157 1058 143 1015 143 1039 b 486 1217 208 1131 325 1217 b 732 1028 642 1217 732 1147 b 489 706 732 872 599 764 b 828 385 681 692 828 568 b 335 -22 828 139 633 -22 "},"4":{"ha":833,"x_min":0,"x_max":0,"o":"m 472 306 l 36 306 b 11 328 22 306 11 314 b 24 357 11 336 14 342 l 535 1181 b 560 1194 540 1190 549 1194 l 665 1194 b 674 1174 676 1194 682 1186 l 161 396 l 472 396 l 472 815 b 492 843 472 829 475 839 l 689 894 b 715 881 704 899 715 894 l 715 396 l 765 396 b 808 351 796 396 808 378 b 765 306 808 325 793 306 l 715 306 l 715 154 b 800 60 715 82 750 71 b 825 29 818 56 825 44 b 799 0 825 13 817 0 b 593 8 775 0 704 8 b 349 0 481 8 372 0 b 321 29 331 0 321 13 b 346 60 321 44 328 57 b 472 154 413 71 472 82 "},"5":{"ha":972,"x_min":0,"x_max":0,"o":"m 418 -22 b 94 158 239 -22 94 60 b 168 239 94 207 124 239 b 446 69 271 239 271 69 b 633 386 569 69 633 178 b 438 665 633 569 567 665 b 238 582 344 665 271 608 b 190 571 222 569 207 565 b 171 604 175 576 168 586 l 268 1171 b 297 1194 271 1188 281 1194 b 522 1190 354 1193 438 1190 b 771 1194 651 1190 722 1193 b 789 1176 783 1194 789 1188 l 789 1006 b 760 978 789 985 779 978 b 383 996 724 978 576 996 l 347 996 b 326 978 335 996 328 989 l 285 733 b 289 721 283 725 283 721 b 311 731 293 721 301 725 b 507 782 344 749 414 782 b 885 404 736 782 885 633 b 418 -22 885 146 701 -22 "},"6":{"ha":972,"x_min":0,"x_max":0,"o":"m 333 407 b 485 54 333 163 393 54 b 614 358 574 54 614 150 b 493 642 614 551 575 642 b 338 528 432 642 378 597 b 333 407 335 489 333 449 m 97 403 b 674 1210 97 750 360 1075 b 722 1196 693 1218 714 1211 b 710 1147 732 1179 729 1157 b 354 653 499 1040 394 863 b 544 729 410 701 475 729 b 864 369 738 729 864 588 b 478 -22 864 132 711 -22 b 97 403 246 -22 97 135 "},"7":{"ha":833,"x_min":0,"x_max":0,"o":"m 644 969 b 635 988 650 982 646 988 b 181 969 446 983 213 969 b 151 997 161 969 151 976 l 156 1176 b 174 1194 156 1189 163 1194 b 408 1190 222 1193 292 1189 l 829 1194 b 847 1167 849 1194 856 1186 b 368 32 644 724 478 324 b 304 3 357 3 331 -6 b 271 64 276 11 260 32 b 644 969 374 342 504 667 "},"8":{"ha":972,"x_min":0,"x_max":0,"o":"m 464 -22 b 88 299 246 -22 88 113 b 324 628 88 431 188 549 b 143 936 229 710 143 817 b 479 1217 143 1099 285 1217 b 811 960 681 1217 811 1115 b 578 675 811 847 713 746 b 850 299 706 578 850 468 b 464 -22 850 104 697 -22 m 290 301 b 486 61 290 150 363 61 b 639 228 581 61 639 122 b 392 576 639 382 529 474 b 290 301 333 525 290 421 m 354 996 b 514 726 354 883 414 808 b 610 969 578 785 610 876 b 485 1133 610 1074 564 1133 b 354 996 406 1133 354 1079 "},"9":{"ha":972,"x_min":0,"x_max":0,"o":"m 633 785 b 482 1138 633 1029 574 1138 b 353 833 393 1138 353 1042 b 474 550 353 640 392 550 b 629 664 535 550 590 594 b 633 785 632 704 633 744 m 103 822 b 481 1214 103 1060 256 1214 b 869 789 714 1214 869 1057 b 321 -18 869 442 615 110 b 272 -4 301 -26 281 -19 b 285 44 263 13 265 35 b 614 542 483 146 578 328 b 422 463 560 490 493 463 b 103 822 229 463 103 604 "}," ":{"ha":278,"x_min":0,"x_max":0,"o":""}," ":{"ha":278,"x_min":0,"x_max":0,"o":""},"A":{"ha":950,"x_min":0,"x_max":0,"o":"m 867 136 b 957 63 882 81 913 72 b 986 29 975 58 986 49 b 958 0 986 8 974 0 b 775 6 933 0 882 6 b 547 0 661 6 574 0 b 518 31 529 0 518 13 b 546 63 518 49 529 60 b 614 138 592 71 628 83 l 547 394 b 518 413 544 407 535 413 l 326 413 b 296 394 308 413 300 406 l 222 136 b 218 110 219 128 218 119 b 297 64 218 83 239 74 b 325 31 315 61 325 49 b 296 0 325 11 313 0 b 144 6 274 0 226 6 b 6 0 65 6 25 0 b -21 31 -8 0 -21 11 b 7 63 -21 50 -10 60 b 96 124 38 68 82 76 l 407 1142 b 500 1200 421 1185 451 1200 b 588 1142 547 1200 575 1185 l 867 136 m 331 514 b 338 496 326 501 329 496 l 510 496 b 518 514 518 496 521 503 l 436 833 b 422 835 431 851 426 850 l 331 514 "},"B":{"ha":818,"x_min":0,"x_max":0,"o":"m 83 1068 b 1 1133 83 1113 38 1126 b -28 1165 -21 1138 -28 1150 b 3 1194 -28 1181 -19 1194 b 219 1189 35 1194 99 1189 b 443 1194 308 1189 393 1194 b 799 914 658 1194 799 1083 b 576 643 799 781 717 683 b 846 335 735 606 846 482 b 454 0 846 132 692 0 l 219 3 b 3 0 101 3 35 0 b -28 29 -19 0 -28 14 b 1 61 -28 44 -21 57 b 83 126 38 68 83 82 l 83 1068 m 326 164 b 415 76 326 103 349 76 b 589 329 529 76 589 163 b 404 589 589 500 525 589 b 326 521 349 589 326 579 l 326 164 m 399 672 b 542 906 493 672 542 753 b 396 1118 542 1046 492 1118 b 326 1047 342 1118 326 1103 l 326 738 b 399 672 326 686 347 672 "},"C":{"ha":829,"x_min":0,"x_max":0,"o":"m 815 929 b 790 904 815 910 803 904 b 757 929 774 904 764 911 b 543 1133 717 1042 640 1133 b 271 597 378 1133 271 922 b 557 61 271 272 383 61 b 769 297 665 61 721 154 b 801 326 776 318 785 326 b 829 299 819 326 829 318 b 826 176 829 265 826 235 l 829 81 b 557 -22 829 29 704 -22 b 14 597 228 -22 14 222 b 543 1217 14 972 222 1217 b 815 1114 693 1217 815 1165 b 813 1036 815 1101 813 1075 b 815 929 813 996 815 956 "},"D":{"ha":994,"x_min":0,"x_max":0,"o":"m 468 76 b 744 596 650 76 744 254 b 464 1118 744 939 649 1118 b 354 1019 386 1118 354 1100 l 354 167 b 468 76 354 88 400 76 m 31 0 b 0 29 8 0 0 15 b 29 61 0 44 7 57 b 111 126 65 68 111 82 l 111 1068 b 29 1133 111 1113 65 1126 b 0 1165 7 1138 0 1150 b 31 1194 0 1179 8 1194 b 243 1189 50 1194 117 1189 b 500 1194 339 1189 433 1194 b 1001 596 817 1194 1001 974 b 500 0 1001 219 817 0 b 264 4 438 0 350 4 b 31 0 136 4 67 0 "},"E":{"ha":772,"x_min":0,"x_max":0,"o":"m 97 1071 b 22 1132 97 1113 58 1124 b -14 1164 -4 1138 -14 1147 b 24 1194 -14 1181 0 1194 l 140 1190 b 403 1189 228 1188 342 1189 b 696 1194 511 1189 624 1194 b 747 1153 731 1194 747 1183 b 744 1051 747 1119 744 1090 l 746 949 b 722 928 746 933 735 928 b 682 963 707 928 694 933 b 454 1114 647 1043 588 1114 b 340 1033 379 1114 340 1100 l 340 729 b 407 675 340 683 346 675 l 472 675 b 593 800 553 675 581 756 b 625 832 600 824 608 832 b 654 800 639 832 654 826 b 649 636 654 778 649 690 b 654 483 649 588 654 507 b 628 456 654 463 643 456 b 593 486 611 456 600 463 b 472 596 579 531 553 596 l 407 596 b 340 542 346 596 340 589 l 340 179 b 472 81 340 106 376 81 b 696 274 614 81 660 164 b 731 308 706 303 715 308 b 758 274 746 308 758 301 l 756 153 b 758 57 756 108 758 81 b 688 0 758 14 736 0 b 410 6 624 0 532 6 b 140 4 342 6 215 7 l 24 0 b -14 31 0 0 -14 14 b 22 63 -14 47 -4 57 b 97 124 58 71 97 82 l 97 1071 "},"F":{"ha":761,"x_min":0,"x_max":0,"o":"m 132 1063 b 57 1128 132 1107 93 1119 b 21 1163 31 1133 21 1144 b 58 1194 21 1181 35 1194 l 175 1190 b 403 1189 251 1188 331 1189 b 710 1194 511 1189 638 1194 b 761 1153 744 1194 761 1183 b 758 1051 761 1119 758 1090 l 760 950 b 738 928 760 935 751 928 b 697 963 724 928 715 933 b 454 1117 649 1042 585 1117 b 375 1043 394 1117 375 1100 l 375 703 b 442 649 375 657 381 649 l 472 649 b 604 772 564 649 590 726 b 639 804 611 796 622 804 b 668 772 653 804 668 799 b 663 608 668 750 663 676 b 668 456 663 546 668 479 b 642 428 668 435 656 428 b 604 458 625 428 613 435 b 472 569 589 504 564 569 l 442 569 b 375 515 381 569 375 563 l 375 126 b 458 60 375 82 415 69 b 485 28 476 56 485 44 b 457 0 485 13 475 0 b 264 8 438 0 364 8 b 50 0 143 8 71 0 b 22 28 32 0 22 13 b 49 60 22 44 31 56 b 132 126 92 69 132 82 l 132 1063 "},"G":{"ha":990,"x_min":0,"x_max":0,"o":"m 874 94 b 522 -22 874 39 715 -22 b -7 585 201 -22 -7 217 b 553 1217 -7 968 214 1217 b 846 1114 704 1217 846 1158 b 843 992 846 1099 843 1057 b 846 900 843 942 846 914 b 818 876 846 885 835 876 b 785 900 801 876 790 883 b 553 1133 742 1031 667 1133 b 250 585 369 1133 250 917 b 539 61 250 268 364 61 b 638 146 600 61 638 85 l 638 397 b 525 519 638 483 575 507 b 500 550 507 524 500 535 b 526 579 500 564 508 579 b 749 571 556 579 642 571 b 971 579 856 571 942 579 b 997 550 989 579 997 564 b 972 519 997 535 990 522 b 874 397 915 510 874 483 l 874 94 "},"H":{"ha":990,"x_min":0,"x_max":0,"o":"m 638 1068 b 554 1135 638 1113 597 1125 b 528 1167 536 1139 528 1150 b 556 1194 528 1182 538 1194 b 763 1186 579 1194 649 1186 b 963 1194 869 1186 940 1194 b 990 1167 981 1194 990 1182 b 964 1135 990 1150 982 1139 b 881 1068 921 1125 881 1113 l 881 126 b 964 60 881 82 921 69 b 990 28 982 56 990 44 b 963 0 990 13 981 0 b 763 8 940 0 869 8 b 556 0 649 8 579 0 b 528 28 538 0 528 13 b 554 60 528 44 536 56 b 638 126 597 69 638 82 l 638 550 b 619 568 638 563 631 568 l 371 568 b 353 550 358 568 353 561 l 353 126 b 436 60 353 82 393 69 b 463 28 454 56 463 44 b 435 0 463 13 453 0 b 242 8 415 0 342 8 b 28 0 121 8 51 0 b 0 28 10 0 0 13 b 26 60 0 44 8 56 b 110 126 69 69 110 82 l 110 1068 b 26 1135 110 1113 68 1125 b 0 1167 8 1139 0 1150 b 28 1194 0 1182 10 1194 b 228 1186 49 1194 121 1186 b 435 1194 342 1186 411 1194 b 463 1167 453 1194 463 1182 b 436 1135 463 1150 454 1139 b 353 1068 396 1125 353 1113 l 353 683 b 372 665 353 671 360 665 l 619 665 b 638 685 632 665 638 672 l 638 1068 "},"I":{"ha":456,"x_min":0,"x_max":0,"o":"m 107 1068 b 24 1135 107 1113 67 1125 b -3 1167 6 1139 -3 1150 b 25 1194 -3 1182 7 1194 b 235 1186 46 1194 118 1186 b 432 1194 339 1186 413 1194 b 460 1167 450 1194 460 1182 b 433 1135 460 1150 451 1139 b 350 1068 390 1125 350 1113 l 350 126 b 433 60 350 82 390 69 b 460 28 451 56 460 44 b 432 0 460 13 450 0 b 235 8 413 0 339 8 b 25 0 118 8 46 0 b -3 28 7 0 -3 13 b 24 60 -3 44 6 56 b 107 126 67 69 107 82 l 107 1068 "},"J":{"ha":642,"x_min":0,"x_max":0,"o":"m 296 1040 b 225 1135 296 1113 264 1125 b 200 1167 207 1139 200 1151 b 226 1194 200 1181 208 1194 b 414 1186 250 1194 321 1186 b 615 1194 521 1186 592 1194 b 642 1167 633 1194 642 1181 b 617 1135 642 1151 635 1139 b 532 1040 574 1125 532 1113 l 532 186 b 214 -244 532 -64 399 -244 b 35 -132 106 -244 35 -200 b 97 -69 35 -94 60 -69 b 235 -182 168 -69 171 -182 b 296 92 286 -182 296 -89 l 296 1040 "},"K":{"ha":988,"x_min":0,"x_max":0,"o":"m 642 1057 b 572 1138 681 1107 656 1119 b 550 1167 560 1140 550 1150 b 574 1194 550 1183 561 1194 b 771 1188 603 1194 676 1188 b 953 1194 860 1188 925 1194 b 976 1169 967 1194 976 1186 b 956 1142 976 1154 968 1144 b 814 1075 883 1125 847 1117 l 524 704 b 522 675 515 694 517 685 l 871 139 b 1008 56 906 86 956 67 b 1036 26 1025 51 1036 43 b 1007 0 1036 10 1025 0 b 817 7 963 0 901 7 b 596 0 733 7 651 0 b 571 28 581 0 571 13 b 599 56 571 46 583 53 b 640 121 653 67 667 79 l 404 483 b 357 492 388 510 372 510 l 357 492 b 339 428 344 476 339 454 l 339 154 b 424 60 339 82 385 68 b 449 29 442 56 449 44 b 422 0 449 14 440 0 b 228 8 393 0 328 8 b 40 0 135 8 69 0 b 14 29 22 0 14 14 b 39 60 14 44 21 56 b 124 154 78 68 124 82 l 124 1040 b 39 1135 124 1113 82 1125 b 14 1167 21 1139 14 1151 b 40 1194 14 1179 22 1194 b 228 1186 69 1194 135 1186 b 422 1194 328 1186 393 1194 b 449 1167 440 1194 449 1179 b 424 1135 449 1153 442 1139 b 339 1040 385 1125 339 1113 l 339 688 b 354 682 339 669 344 669 l 642 1057 "},"L":{"ha":750,"x_min":0,"x_max":0,"o":"m 110 1068 b 26 1135 110 1113 69 1125 b 0 1167 8 1139 0 1150 b 28 1194 0 1182 10 1194 b 238 1186 49 1194 121 1186 b 435 1194 342 1186 415 1194 b 463 1167 453 1194 463 1182 b 436 1135 463 1150 454 1139 b 353 1068 393 1125 353 1113 l 353 172 b 467 81 353 97 393 81 b 694 274 594 81 658 164 b 726 308 704 303 714 308 b 750 274 742 308 750 300 l 747 153 b 750 57 747 108 750 81 b 679 0 750 14 728 0 b 388 6 615 0 510 6 b 153 4 321 6 219 7 l 36 0 b -1 31 13 0 -1 14 b 35 63 -1 47 8 57 b 110 124 71 71 110 82 l 110 1068 "},"M":{"ha":1160,"x_min":0,"x_max":0,"o":"m 808 799 b 800 799 808 821 806 818 b 619 224 742 600 678 388 b 526 125 596 157 582 125 b 428 224 471 125 451 157 b 243 801 360 411 299 608 b 235 800 238 822 235 819 l 221 154 b 331 60 219 82 272 71 b 356 29 349 57 356 44 b 329 0 356 14 347 0 b 174 8 306 0 256 8 b 13 0 93 8 35 0 b -14 29 -6 0 -14 14 b 11 60 -14 44 -7 56 b 96 154 51 68 94 82 l 115 1053 b 36 1129 117 1099 97 1117 b 6 1164 18 1133 6 1144 b 32 1194 6 1183 18 1194 b 199 1192 57 1194 89 1192 b 307 1194 254 1192 288 1194 b 365 1144 340 1194 351 1190 l 574 460 b 589 460 579 440 585 443 l 785 1146 b 835 1194 797 1190 807 1194 b 960 1192 853 1194 899 1192 b 1132 1194 1072 1192 1110 1194 b 1161 1165 1151 1194 1161 1179 b 1135 1133 1161 1150 1154 1138 b 1046 1053 1085 1122 1044 1107 l 1064 154 b 1149 60 1065 82 1106 71 b 1174 29 1167 56 1174 44 b 1147 0 1174 14 1165 0 b 953 8 1122 0 1058 8 b 765 0 846 8 788 0 b 739 29 747 0 739 14 b 764 60 739 44 746 56 b 821 154 804 69 822 82 l 808 799 "},"N":{"ha":933,"x_min":0,"x_max":0,"o":"m 819 111 b 729 -3 819 39 794 -3 b 581 133 661 -3 629 33 l 247 815 b 228 811 233 843 228 839 l 228 154 b 338 60 228 86 296 69 b 363 29 356 56 363 44 b 336 0 363 14 354 0 b 182 8 307 0 263 8 b 19 0 107 8 43 0 b -7 29 1 0 -7 14 b 18 60 -7 44 0 56 b 103 154 56 68 103 82 l 103 1064 b 26 1131 103 1110 76 1119 b -3 1165 8 1135 -3 1146 b 24 1194 -3 1185 10 1194 b 165 1192 46 1194 79 1192 b 299 1194 239 1192 281 1194 b 351 1138 322 1194 331 1181 l 675 478 b 694 483 689 450 694 454 l 694 1040 b 582 1135 694 1113 642 1124 b 557 1167 564 1138 557 1150 b 583 1194 557 1181 565 1194 b 754 1186 608 1194 658 1186 b 914 1194 863 1186 893 1194 b 940 1167 932 1194 940 1181 b 915 1135 940 1150 933 1139 b 819 1040 869 1124 819 1110 l 819 111 "},"O":{"ha":976,"x_min":0,"x_max":0,"o":"m 489 -22 b -7 596 189 -22 -7 221 b 489 1217 -7 972 189 1217 b 983 596 789 1217 983 972 b 489 -22 983 221 789 -22 m 489 61 b 726 596 639 61 726 258 b 489 1133 726 935 639 1133 b 250 596 338 1133 250 935 b 489 61 250 258 338 61 "},"P":{"ha":819,"x_min":0,"x_max":0,"o":"m 111 1061 b 29 1133 111 1110 65 1126 b 0 1167 7 1138 0 1150 b 31 1194 0 1182 8 1194 b 225 1189 56 1194 118 1189 b 471 1194 333 1189 421 1194 b 840 850 694 1194 840 1058 b 497 467 840 618 706 467 b 379 497 443 467 407 482 b 354 483 361 508 354 503 l 354 126 b 438 60 354 82 394 69 b 464 28 456 56 464 44 b 436 0 464 13 454 0 b 239 8 417 0 343 8 b 29 0 122 8 50 0 b 1 28 11 0 1 13 b 28 60 1 44 10 56 b 111 126 71 69 111 82 l 111 1061 m 354 647 b 450 550 354 600 372 550 b 583 846 544 550 583 636 b 425 1118 583 1032 533 1118 b 354 1067 379 1118 354 1107 l 354 647 "},"Q":{"ha":1018,"x_min":0,"x_max":0,"o":"m 811 -46 b 935 -19 882 -46 918 -19 b 942 -54 949 -19 951 -33 b 763 -189 929 -81 865 -189 b 396 -92 647 -189 540 -92 b 188 -147 288 -92 226 -147 b 175 -122 175 -147 167 -137 b 322 14 190 -93 249 -28 b 14 596 131 96 14 307 b 510 1217 14 972 210 1217 b 1004 596 810 1217 1004 972 b 651 -3 1004 283 869 64 b 811 -46 701 -25 750 -46 m 510 61 b 747 596 660 61 747 258 b 510 1133 747 935 660 1133 b 271 596 358 1133 271 935 b 510 61 271 258 358 61 "},"R":{"ha":940,"x_min":0,"x_max":0,"o":"m 111 1068 b 29 1133 111 1113 65 1126 b 0 1165 7 1138 0 1151 b 31 1194 0 1179 8 1194 b 240 1189 58 1194 96 1189 b 471 1194 344 1189 421 1194 b 840 888 694 1194 840 1074 b 635 590 840 753 765 646 b 792 313 693 560 754 414 b 872 115 811 260 840 182 b 961 60 890 78 915 69 b 989 28 979 56 989 44 b 961 0 989 11 978 0 b 835 3 938 0 894 3 b 699 0 764 3 711 0 b 635 33 665 0 646 10 b 532 304 608 93 550 247 b 394 557 467 511 460 557 b 354 524 367 557 354 549 l 354 126 b 438 60 354 82 394 69 b 464 28 456 56 464 44 b 436 0 464 13 454 0 b 239 8 417 0 343 8 b 29 0 122 8 50 0 b 1 28 11 0 1 13 b 28 60 1 44 10 56 b 111 126 71 69 111 82 l 111 1068 m 446 624 b 583 879 536 624 583 711 b 418 1118 583 1036 526 1118 b 354 1065 376 1118 354 1106 l 354 699 b 446 624 354 636 388 624 "},"S":{"ha":706,"x_min":0,"x_max":0,"o":"m 579 858 b 342 1133 557 1019 460 1133 b 221 1003 268 1133 221 1082 b 699 317 221 732 699 718 b 328 -22 699 111 544 -22 b 21 101 135 -22 21 42 b 26 265 21 138 26 188 b 21 385 26 322 21 360 b 53 419 21 408 35 419 b 86 392 71 419 81 414 b 351 61 142 172 211 61 b 489 213 439 61 489 117 b 14 907 489 569 14 554 b 365 1217 14 1094 153 1217 b 643 1115 488 1217 643 1175 b 640 954 643 1082 640 1032 l 643 846 b 617 817 643 824 631 817 b 579 858 601 817 585 822 "},"T":{"ha":897,"x_min":0,"x_max":0,"o":"m 326 1044 b 265 1107 326 1085 308 1107 b 82 951 143 1107 107 1025 b 43 914 72 922 58 914 b 15 942 26 914 15 924 l 17 1042 l 14 1153 b 65 1194 14 1183 31 1194 b 449 1178 132 1194 276 1178 b 831 1194 618 1178 776 1194 b 882 1153 865 1194 882 1183 l 879 1042 l 881 942 b 856 914 881 924 872 914 b 817 951 840 914 826 922 b 631 1107 792 1025 753 1107 b 569 1044 588 1107 569 1085 l 569 140 b 653 60 569 82 617 68 b 679 29 671 56 679 44 b 651 0 679 14 669 0 b 449 8 632 0 558 8 b 244 0 338 8 264 0 b 217 29 226 0 217 13 b 243 60 217 44 225 56 b 326 140 282 68 326 82 l 326 1044 "},"U":{"ha":982,"x_min":0,"x_max":0,"o":"m 749 1054 b 671 1135 749 1115 701 1128 b 639 1168 653 1139 639 1147 b 671 1194 639 1185 650 1194 b 814 1186 693 1194 728 1186 b 951 1194 900 1186 929 1194 b 983 1168 972 1194 983 1185 b 951 1135 983 1147 969 1139 b 874 1054 921 1128 874 1115 l 874 307 b 538 -22 874 99 750 -22 b 110 321 274 -22 110 93 l 110 1054 b 32 1135 110 1115 63 1128 b 0 1168 14 1139 0 1147 b 32 1194 0 1185 11 1194 b 242 1186 54 1194 121 1186 b 431 1194 356 1186 408 1194 b 463 1168 451 1194 463 1185 b 431 1135 463 1147 449 1139 b 353 1054 400 1128 353 1115 l 353 307 b 563 68 353 143 426 68 b 749 293 685 68 749 139 l 749 1054 "},"V":{"ha":1058,"x_min":0,"x_max":0,"o":"m 129 1054 b 36 1131 113 1106 88 1118 b 7 1165 18 1135 7 1146 b 35 1196 7 1183 19 1196 b 250 1188 57 1196 128 1188 b 458 1194 368 1188 429 1194 b 489 1164 476 1194 489 1183 b 463 1131 489 1146 479 1136 b 393 1021 399 1110 372 1088 l 594 375 b 608 375 599 358 604 360 l 799 1025 b 710 1132 819 1097 786 1117 b 683 1164 693 1135 683 1146 b 711 1194 683 1183 696 1194 b 881 1189 735 1194 779 1189 b 1038 1194 981 1189 1017 1194 b 1065 1165 1053 1194 1065 1185 b 1035 1131 1065 1146 1056 1136 b 936 1039 985 1117 956 1103 l 638 67 b 553 0 621 13 592 0 b 457 67 508 0 475 13 l 129 1054 "},"W":{"ha":1513,"x_min":0,"x_max":0,"o":"m 635 1051 b 540 1129 618 1101 593 1117 b 513 1164 522 1133 513 1142 b 539 1194 513 1183 525 1194 b 736 1188 567 1194 619 1188 b 971 1194 871 1188 949 1194 b 1000 1163 989 1194 1000 1182 b 975 1129 1000 1143 992 1132 b 890 1038 892 1115 874 1093 l 1078 396 b 1089 396 1082 383 1085 385 l 1261 1022 b 1174 1129 1279 1089 1253 1117 b 1144 1163 1156 1132 1144 1144 b 1174 1194 1144 1182 1157 1194 b 1344 1189 1197 1194 1250 1189 b 1518 1196 1444 1189 1499 1196 b 1547 1163 1535 1196 1547 1182 b 1521 1129 1547 1143 1539 1133 b 1388 1017 1439 1108 1408 1093 l 1128 67 b 1043 0 1115 24 1092 0 b 954 67 994 0 968 24 l 810 510 b 799 511 806 522 803 522 l 660 67 b 568 0 646 24 624 0 b 471 67 511 0 486 24 l 131 1051 b 36 1129 114 1101 92 1115 b 7 1164 18 1133 7 1144 b 35 1194 7 1183 19 1194 b 238 1188 57 1194 133 1188 b 465 1194 361 1188 436 1194 b 494 1163 483 1194 494 1182 b 467 1129 494 1142 483 1132 b 389 1039 383 1117 371 1096 l 611 367 b 622 367 615 354 619 356 l 736 689 b 738 735 742 707 742 721 l 635 1051 "},"X":{"ha":1044,"x_min":0,"x_max":0,"o":"m 324 144 b 399 60 299 99 314 72 b 426 29 418 57 426 46 b 401 0 426 11 415 0 b 207 4 375 0 281 4 b 36 0 132 4 61 0 b 7 29 21 0 7 10 b 35 60 7 47 21 57 b 169 132 101 72 143 83 l 408 568 b 408 590 413 576 413 583 l 167 1053 b 49 1135 140 1104 113 1118 b 18 1168 32 1139 18 1149 b 44 1194 18 1186 29 1194 b 263 1189 75 1194 164 1189 b 492 1194 382 1189 460 1194 b 519 1168 507 1194 519 1185 b 490 1135 519 1150 508 1139 b 439 1036 418 1117 413 1086 l 551 817 b 568 817 557 806 563 806 l 686 1047 b 626 1138 713 1099 696 1119 b 597 1169 610 1142 597 1150 b 621 1194 597 1185 608 1194 b 800 1189 649 1194 713 1189 b 978 1194 875 1189 954 1194 b 1003 1169 993 1194 1003 1185 b 976 1138 1003 1149 990 1140 b 832 1044 897 1119 865 1108 l 638 674 b 639 650 633 665 635 658 l 900 142 b 1047 60 929 85 985 72 b 1079 28 1069 56 1079 46 b 1054 0 1079 10 1069 0 b 836 4 1022 0 963 4 b 576 0 760 4 618 0 b 550 29 561 0 550 11 b 576 58 550 47 561 56 b 643 142 647 72 667 96 l 493 426 b 476 426 488 438 482 438 l 324 144 "},"Y":{"ha":1039,"x_min":0,"x_max":0,"o":"m 749 1038 b 679 1135 776 1096 758 1119 b 650 1167 663 1138 650 1149 b 675 1194 650 1183 663 1194 b 850 1188 701 1194 746 1188 b 1013 1194 949 1188 992 1194 b 1039 1168 1028 1194 1039 1185 b 1011 1138 1039 1150 1028 1142 b 889 1053 954 1124 918 1114 l 663 578 l 663 126 b 746 60 663 82 703 69 b 772 28 764 56 772 44 b 744 0 772 13 763 0 b 547 8 725 0 651 8 b 338 0 431 8 358 0 b 310 28 319 0 310 13 b 336 60 310 44 318 56 b 419 126 379 69 419 82 l 419 510 l 139 1063 b 33 1135 114 1111 82 1124 b 0 1167 17 1139 0 1146 b 28 1194 0 1183 13 1194 b 242 1188 58 1194 119 1188 b 482 1194 390 1188 449 1194 b 510 1167 497 1194 510 1183 b 479 1135 510 1149 499 1139 b 426 1031 408 1118 399 1088 l 581 713 b 597 713 586 701 592 701 l 749 1038 "},"Z":{"ha":819,"x_min":0,"x_max":0,"o":"m 418 1189 b 807 1194 582 1189 746 1194 b 833 1172 824 1194 833 1186 b 828 1151 833 1167 832 1160 l 304 110 b 318 88 296 94 301 88 l 490 88 b 750 274 688 88 721 146 b 785 308 757 303 768 308 b 815 274 801 308 815 300 l 813 153 b 815 57 813 108 815 81 b 744 0 815 14 793 0 b 371 4 686 0 542 4 b 14 0 207 4 71 0 b -10 18 -1 0 -10 7 b -4 36 -10 25 -7 31 l 522 1083 b 508 1106 531 1099 525 1106 l 354 1106 b 115 963 174 1106 143 1036 b 78 928 104 933 94 928 b 47 957 58 928 47 939 b 50 1051 47 988 50 1011 b 47 1153 50 1090 47 1119 b 99 1194 47 1183 64 1194 b 418 1189 164 1194 318 1189 "},"a":{"ha":724,"x_min":0,"x_max":0,"o":"m 0 181 b 394 567 0 344 144 476 b 413 592 407 571 413 579 l 413 731 b 368 854 413 817 404 854 b 254 722 326 854 296 808 b 138 610 222 656 197 610 b 63 689 92 610 63 640 b 385 918 63 785 225 918 b 638 708 532 918 638 851 l 638 138 b 668 79 638 99 644 79 b 699 90 678 79 692 86 b 731 93 713 99 722 99 b 735 61 740 86 739 72 b 604 0 721 22 667 0 b 456 61 550 0 489 24 b 443 61 451 67 447 65 b 222 -21 389 10 311 -21 b 0 181 93 -21 0 53 m 224 189 b 313 68 224 113 253 68 b 413 214 375 68 413 131 l 413 482 b 400 489 413 490 408 492 b 224 189 265 421 224 283 "},"b":{"ha":840,"x_min":0,"x_max":0,"o":"m 294 181 b 426 54 294 97 339 54 b 604 461 553 54 604 172 b 444 828 604 721 557 828 b 294 653 350 828 294 747 l 294 181 m -7 1229 b 21 1256 -7 1243 1 1253 b 250 1336 82 1264 194 1299 b 276 1347 263 1344 267 1347 b 294 1328 288 1347 294 1340 l 294 871 b 306 868 294 863 299 863 b 467 918 350 897 406 918 b 840 474 681 918 840 743 b 447 -22 840 161 682 -22 b 193 17 315 -22 243 17 b 122 -12 154 17 138 4 b 93 -26 114 -22 107 -26 b 67 3 76 -26 67 -15 b 72 72 67 18 72 39 l 72 1138 b 19 1200 72 1185 50 1196 b -7 1229 0 1203 -7 1213 "},"c":{"ha":644,"x_min":0,"x_max":0,"o":"m 624 665 b 600 647 624 654 613 647 b 572 668 585 647 578 656 b 396 842 526 772 476 842 b 215 463 282 842 215 701 b 444 71 215 206 294 71 b 578 124 494 71 536 89 b 601 135 586 131 593 135 b 621 125 610 135 617 129 b 631 106 626 119 631 113 b 622 85 631 99 628 92 b 394 -22 569 14 492 -22 b -21 438 154 -22 -21 171 b 394 918 -21 717 154 918 b 624 806 522 918 624 856 b 621 743 624 788 621 774 b 624 665 621 713 624 683 "},"d":{"ha":840,"x_min":0,"x_max":0,"o":"m 789 204 b 846 118 789 150 803 135 b 868 92 861 113 868 106 b 840 67 868 78 860 69 b 604 -14 769 56 647 25 b 585 -22 597 -21 593 -22 b 567 -3 574 -22 567 -15 l 567 46 b 557 47 567 54 563 54 b 378 -22 514 6 457 -22 b 14 436 157 -22 14 147 b 418 918 14 728 182 918 b 551 881 468 918 513 907 b 567 888 563 872 567 876 l 567 1150 b 514 1215 567 1197 544 1207 b 488 1244 499 1219 488 1226 b 517 1271 488 1260 499 1268 b 746 1350 575 1279 694 1306 b 771 1361 756 1358 760 1361 b 789 1342 783 1361 789 1354 l 789 204 m 250 450 b 433 76 250 204 313 76 b 567 228 515 76 567 140 l 567 669 b 431 842 567 774 515 842 b 250 450 317 842 250 697 "},"e":{"ha":678,"x_min":0,"x_max":0,"o":"m 379 579 b 486 706 458 579 486 621 b 394 842 486 794 456 842 b 236 593 310 842 256 756 b 247 579 235 583 239 579 l 379 579 m -7 433 b 390 918 -7 726 150 918 b 685 581 568 918 685 785 b 632 503 685 528 664 503 l 243 503 b 231 493 235 503 231 499 l 229 446 b 460 75 229 203 308 75 b 625 149 528 75 575 104 b 664 151 636 158 650 161 b 669 115 676 142 676 129 b 403 -21 628 32 524 -21 b -7 433 154 -21 -7 158 "},"f":{"ha":522,"x_min":0,"x_max":0,"o":"m 476 896 b 517 856 499 896 517 881 b 476 813 517 828 504 813 l 363 813 b 332 788 342 813 332 804 l 332 154 b 403 60 332 82 372 67 b 428 29 421 56 428 44 b 399 0 428 14 419 0 b 221 8 383 0 321 8 b 42 0 121 8 57 0 b 14 29 24 0 14 14 b 40 60 14 44 22 56 b 110 154 71 67 110 82 l 110 786 b 85 811 110 804 101 811 l 49 810 b 21 843 35 810 21 822 b 43 876 21 860 28 871 l 88 893 b 110 921 103 899 110 908 l 110 975 b 439 1347 110 1190 249 1347 b 633 1185 557 1347 633 1271 b 574 1113 633 1143 611 1113 b 494 1174 539 1113 513 1129 b 421 1278 467 1240 460 1278 b 332 967 365 1278 332 1206 l 332 921 b 364 896 332 903 343 896 l 476 896 "},"g":{"ha":801,"x_min":0,"x_max":0,"o":"m 414 271 b 260 213 368 271 260 263 b 310 176 260 190 278 176 b 531 196 381 176 451 196 b 815 -19 703 196 815 111 b 374 -361 815 -218 629 -361 b 0 -154 157 -361 0 -274 b 126 19 0 -81 47 -28 b 129 39 135 25 135 31 b 69 154 97 76 69 122 b 235 300 69 239 154 279 b 236 310 244 303 244 306 b 51 596 122 363 51 467 b 419 918 51 783 206 918 b 528 906 458 918 494 914 b 638 872 596 886 599 872 l 783 872 b 821 835 808 872 821 856 b 781 794 821 813 810 794 l 707 794 b 776 596 751 740 776 672 b 419 271 776 407 626 271 l 414 271 m 419 350 b 540 596 496 350 540 440 b 419 842 540 751 496 842 b 288 596 336 842 288 751 b 419 350 288 440 336 350 m 219 -92 b 429 -260 219 -197 297 -260 b 650 -121 563 -260 650 -206 b 463 -7 650 -43 590 -7 b 232 -24 393 -7 293 -21 b 219 -92 225 -42 219 -64 "},"h":{"ha":872,"x_min":0,"x_max":0,"o":"m 96 1143 b 53 1201 96 1182 83 1193 b 31 1229 38 1206 31 1215 b 54 1254 31 1242 36 1251 b 278 1338 124 1264 236 1296 b 300 1347 286 1346 290 1347 b 318 1317 313 1347 318 1342 l 318 838 b 335 836 318 825 324 825 b 526 918 389 888 454 918 b 783 651 668 918 783 819 l 783 147 b 854 53 783 75 824 60 b 879 25 872 49 879 39 b 853 0 879 13 871 0 b 679 8 833 0 772 8 b 492 0 572 8 511 0 b 465 25 474 0 465 13 b 490 53 465 39 472 49 b 561 147 521 60 561 75 l 561 638 b 456 803 561 746 529 803 b 318 611 369 803 318 718 l 318 147 b 389 53 318 75 358 60 b 414 25 407 49 414 39 b 388 0 414 13 406 0 b 206 8 368 0 307 8 b 26 0 107 8 46 0 b 0 25 8 0 0 13 b 25 53 0 39 7 49 b 96 147 56 60 96 75 l 96 1143 "},"i":{"ha":414,"x_min":0,"x_max":0,"o":"m 214 988 b 99 1106 147 988 99 1038 b 214 1222 99 1174 147 1222 b 329 1106 281 1222 329 1174 b 214 988 329 1038 281 988 m 325 147 b 397 53 325 75 367 60 b 421 26 415 49 421 40 b 396 0 421 13 414 0 b 213 8 376 0 314 8 b 32 0 114 8 51 0 b 7 26 14 0 7 13 b 31 53 7 40 13 49 b 103 147 61 60 103 75 l 103 711 b 61 768 103 750 89 761 b 38 797 46 772 38 782 b 61 822 38 810 43 819 b 276 904 115 831 229 857 b 300 915 285 913 289 915 b 325 893 317 915 325 908 l 325 147 "},"j":{"ha":436,"x_min":0,"x_max":0,"o":"m 160 692 b 118 749 160 731 146 742 b 94 778 103 753 94 763 b 118 803 94 790 100 800 b 333 885 192 814 296 847 b 357 896 342 893 346 896 b 382 874 374 896 382 889 l 382 -15 b 106 -362 382 -251 263 -362 b -76 -249 0 -362 -76 -315 b -15 -186 -76 -212 -51 -186 b 118 -283 54 -186 63 -283 b 160 -82 147 -283 160 -262 l 160 692 m 271 988 b 156 1106 204 988 156 1038 b 271 1222 156 1174 204 1222 b 386 1106 338 1222 386 1174 b 271 988 386 1038 338 988 "},"k":{"ha":864,"x_min":0,"x_max":0,"o":"m 510 0 b 482 28 494 0 482 11 b 508 57 482 43 493 53 b 529 121 546 67 549 89 l 353 404 b 331 415 344 419 338 422 l 333 418 b 325 393 328 413 325 404 l 325 154 b 396 60 325 82 365 67 b 421 29 414 56 421 44 b 394 0 421 15 413 0 b 213 8 379 0 314 8 b 33 0 114 8 49 0 b 7 29 15 0 7 15 b 32 60 7 44 14 56 b 103 154 63 67 103 82 l 103 1136 b 60 1194 103 1175 90 1186 b 38 1225 44 1199 38 1210 b 61 1254 38 1239 43 1251 b 285 1338 143 1267 247 1300 b 307 1347 293 1346 297 1347 b 325 1331 317 1347 325 1343 l 325 588 b 338 582 325 575 329 574 l 499 744 b 471 835 547 793 533 814 b 447 867 458 839 447 849 b 474 896 447 883 460 896 b 646 889 499 896 546 889 b 810 896 736 889 785 896 b 836 869 825 896 836 886 b 811 839 836 853 826 843 b 649 751 726 814 699 803 l 500 594 b 499 575 494 589 494 582 l 778 139 b 885 60 811 86 849 72 b 913 28 901 54 913 44 b 882 0 913 11 900 0 b 699 8 851 0 797 8 b 510 0 597 8 542 0 "},"l":{"ha":414,"x_min":0,"x_max":0,"o":"m 325 147 b 397 53 325 75 367 60 b 421 26 415 49 421 40 b 396 0 421 13 414 0 b 213 8 376 0 314 8 b 32 0 114 8 51 0 b 7 26 14 0 7 13 b 31 53 7 40 13 49 b 103 147 61 60 103 75 l 103 1143 b 61 1200 103 1182 89 1193 b 38 1229 46 1204 38 1214 b 61 1254 38 1242 43 1251 b 276 1336 115 1263 233 1293 b 300 1347 285 1344 289 1347 b 325 1325 317 1347 325 1340 l 325 147 "},"m":{"ha":1317,"x_min":0,"x_max":0,"o":"m 103 711 b 61 768 103 750 89 761 b 38 797 46 772 38 782 b 61 822 38 810 43 819 b 276 904 115 831 228 856 b 300 915 285 913 289 915 b 325 893 317 915 325 908 l 325 843 b 339 838 325 831 329 829 b 526 918 392 888 458 918 b 738 792 628 918 700 874 b 749 790 740 785 744 785 b 988 918 804 867 888 918 b 1228 651 1125 918 1228 819 l 1228 147 b 1301 53 1228 75 1271 60 b 1324 25 1319 49 1324 40 b 1300 0 1324 13 1318 0 b 1117 8 1281 0 1217 8 b 933 0 1017 8 953 0 b 910 25 915 0 910 13 b 932 53 910 40 914 49 b 1006 147 963 60 1006 75 l 1006 651 b 904 803 1006 754 974 803 b 776 632 824 803 776 736 l 776 147 b 847 53 776 75 817 60 b 872 25 865 49 872 40 b 846 0 872 13 864 0 b 665 8 825 0 765 8 b 485 0 565 8 504 0 b 458 26 467 0 458 13 b 483 53 458 40 465 49 b 554 147 514 60 554 75 l 554 651 b 450 803 554 754 521 803 b 325 667 369 803 325 749 l 325 147 b 397 53 325 75 367 60 b 421 26 415 49 421 40 b 396 0 421 13 414 0 b 213 8 376 0 314 8 b 32 0 114 8 51 0 b 7 26 14 0 7 13 b 31 53 7 40 13 49 b 103 147 61 60 103 75 l 103 711 "},"n":{"ha":872,"x_min":0,"x_max":0,"o":"m 82 697 b 39 756 82 736 69 747 b 17 783 24 760 17 769 b 40 808 17 796 22 806 b 264 906 103 818 207 849 b 286 915 272 914 276 915 b 304 899 299 915 304 910 l 304 824 b 319 824 304 811 310 813 b 506 918 371 882 431 918 b 769 651 654 918 769 819 l 769 147 b 840 53 769 75 810 60 b 865 25 858 49 865 39 b 839 0 865 13 857 0 b 665 8 819 0 758 8 b 478 0 572 8 497 0 b 451 25 460 0 451 13 b 476 53 451 39 458 49 b 547 147 507 60 547 75 l 547 638 b 442 803 547 746 515 803 b 304 611 354 803 304 718 l 304 147 b 375 53 304 75 344 60 b 400 25 393 49 400 39 b 374 0 400 13 392 0 b 192 8 354 0 279 8 b 13 0 93 8 32 0 b -14 25 -6 0 -14 13 b 11 53 -14 39 -7 49 b 82 147 42 60 82 75 l 82 697 "},"o":{"ha":797,"x_min":0,"x_max":0,"o":"m 399 -22 b 0 458 157 -22 0 167 b 399 918 0 736 157 918 b 797 458 640 918 797 736 b 399 -22 797 167 640 -22 m 399 54 b 561 458 501 54 561 203 b 399 842 561 700 501 842 b 236 458 296 842 236 700 b 399 54 236 203 296 54 "},"p":{"ha":871,"x_min":0,"x_max":0,"o":"m 110 671 b 56 757 110 725 99 740 b 31 786 40 763 31 771 b 61 815 31 803 42 813 b 274 904 132 826 232 863 b 304 918 283 914 290 918 b 332 896 319 918 332 911 l 332 842 b 340 838 332 833 335 832 b 533 918 389 883 456 918 b 871 460 738 918 871 738 b 481 -22 871 168 717 -22 b 347 -1 439 -22 390 -17 b 332 -14 336 3 332 -3 l 332 -186 b 429 -281 332 -258 375 -269 b 456 -311 447 -285 456 -296 b 429 -340 456 -326 447 -340 b 214 -332 414 -340 321 -332 b 40 -340 121 -332 56 -340 b 14 -311 22 -340 14 -326 b 39 -281 14 -296 21 -285 b 110 -186 69 -274 110 -258 l 110 671 m 332 203 b 468 54 332 108 375 54 b 635 469 586 54 635 175 b 486 814 635 704 588 814 b 332 631 390 814 332 735 l 332 203 "},"q":{"ha":850,"x_min":0,"x_max":0,"o":"m 539 13 b 528 24 539 25 535 28 b 374 -22 486 -3 433 -22 b -7 422 143 -22 -7 153 b 393 918 -7 722 151 918 b 643 879 525 918 586 879 b 704 908 675 879 690 892 b 732 922 711 917 717 922 b 767 896 750 922 767 915 b 761 810 767 881 761 857 l 761 -186 b 832 -281 761 -258 801 -274 b 857 -311 850 -285 857 -296 b 831 -340 857 -326 849 -340 b 650 -332 815 -340 750 -332 b 442 -340 550 -332 457 -340 b 415 -311 424 -340 415 -326 b 442 -281 415 -296 424 -283 b 539 -186 488 -272 539 -258 l 539 13 m 229 454 b 403 61 229 186 285 61 b 539 271 500 61 539 144 l 539 701 b 415 849 539 786 494 849 b 229 454 288 849 229 724 "},"r":{"ha":586,"x_min":0,"x_max":0,"o":"m 96 711 b 53 769 96 750 83 761 b 31 796 38 774 31 782 b 54 822 31 808 36 819 b 278 906 108 831 235 863 b 299 915 286 914 289 915 b 318 897 311 915 318 910 l 318 796 b 326 794 318 783 321 783 b 489 918 361 867 419 918 b 593 811 551 918 593 876 b 525 718 593 754 567 718 b 411 793 461 718 457 793 b 331 704 378 793 350 754 b 318 617 322 678 318 649 l 318 140 b 417 53 318 75 364 64 b 442 25 435 49 442 39 b 415 0 442 13 433 0 b 206 8 396 0 314 8 b 26 0 107 8 46 0 b 0 25 8 0 0 13 b 25 53 0 39 7 47 b 96 140 56 61 96 75 l 96 711 "},"s":{"ha":592,"x_min":0,"x_max":0,"o":"m 296 -22 b 43 53 174 -22 43 10 b 46 143 43 74 46 99 b 43 231 46 185 43 210 b 69 263 43 253 56 263 b 97 239 83 263 92 254 b 279 54 138 128 192 54 b 385 165 346 54 385 94 b 28 663 385 421 28 389 b 319 918 28 811 150 918 b 525 849 421 918 525 889 b 522 775 525 833 522 807 b 525 707 522 744 525 724 b 503 685 525 694 518 685 b 475 708 488 685 482 693 b 318 843 431 806 368 843 b 231 746 263 843 231 807 b 592 242 231 543 592 563 b 296 -22 592 89 468 -22 "},"t":{"ha":478,"x_min":0,"x_max":0,"o":"m 300 -22 b 82 176 171 -22 82 51 l 82 800 b 69 818 82 813 78 818 l 33 815 b 7 844 19 815 7 828 b 29 875 7 860 14 868 b 251 1040 97 903 201 958 b 276 1053 256 1047 261 1053 b 304 1032 293 1053 304 1046 l 304 921 b 336 896 304 903 315 896 l 421 896 b 461 858 447 896 461 882 b 421 819 461 835 453 819 l 335 819 b 304 794 314 819 304 811 l 304 238 b 375 78 304 128 317 78 b 436 103 397 78 414 88 b 469 104 451 114 461 111 b 471 65 481 94 479 78 b 300 -22 432 8 374 -22 "},"u":{"ha":842,"x_min":0,"x_max":0,"o":"m 103 749 b 32 843 103 821 63 836 b 7 871 14 847 7 857 b 33 896 7 885 15 896 b 163 889 49 896 97 889 b 301 896 249 889 285 896 b 325 874 318 896 325 889 l 325 258 b 431 93 325 146 358 93 b 549 196 492 93 524 138 b 561 268 557 221 561 244 l 561 749 b 490 843 561 821 521 836 b 465 871 472 847 465 857 b 492 896 465 885 474 896 b 635 889 507 896 556 889 b 760 896 707 889 743 896 b 783 874 776 896 783 889 l 783 171 b 826 113 783 132 796 121 b 849 86 842 108 849 99 b 825 60 849 72 843 61 b 607 -8 750 53 674 39 b 582 -19 597 -15 593 -19 b 563 -1 569 -19 563 -14 l 563 54 b 550 60 563 67 558 68 b 360 -22 494 8 428 -22 b 103 244 211 -22 103 76 l 103 749 "},"v":{"ha":831,"x_min":0,"x_max":0,"o":"m 75 789 b 15 843 63 825 43 835 b -14 872 -3 849 -14 857 b 11 896 -14 888 -3 896 b 186 890 38 896 88 890 b 385 896 294 890 367 896 b 411 874 401 896 411 886 b 381 843 411 857 399 847 b 317 758 322 829 297 819 l 454 328 b 474 329 461 307 467 310 l 610 767 b 532 844 625 817 603 831 b 504 872 514 849 504 857 b 532 896 504 888 515 896 b 682 890 550 896 585 890 b 814 896 760 890 800 896 b 838 876 828 896 838 889 b 808 847 838 861 828 851 b 736 776 778 840 756 833 l 503 75 b 419 0 485 19 461 0 b 326 75 376 0 346 19 l 75 789 "},"w":{"ha":1246,"x_min":0,"x_max":0,"o":"m 528 753 b 443 836 510 806 492 821 b 414 860 429 840 418 847 b 386 838 411 849 401 842 b 328 739 328 821 308 797 l 478 294 b 497 296 485 274 490 276 l 583 568 b 583 592 586 576 586 583 l 528 753 m 538 101 b 439 0 513 28 494 0 b 328 101 379 0 354 28 l 90 750 b 13 835 69 808 47 824 b -21 868 -6 840 -21 849 b 7 896 -21 888 -7 896 b 190 889 21 896 89 889 b 389 896 319 889 367 896 b 414 879 401 896 411 890 b 440 896 418 890 429 896 b 626 889 458 896 525 889 b 825 896 746 889 807 896 b 851 871 840 896 851 888 b 821 839 851 856 842 844 b 761 740 763 822 743 797 l 896 303 b 914 304 903 282 908 285 l 1036 744 b 967 838 1050 796 1035 822 b 935 869 947 842 935 851 b 963 896 935 886 946 896 b 1110 890 978 896 1019 890 b 1242 896 1193 890 1228 896 b 1267 871 1256 896 1267 888 b 1235 838 1267 853 1254 843 b 1161 763 1192 825 1176 813 l 954 101 b 858 0 931 28 913 0 b 749 101 796 0 774 28 l 644 408 l 538 101 "},"x":{"ha":786,"x_min":0,"x_max":0,"o":"m 240 126 b 286 56 219 89 224 65 b 313 28 303 53 313 43 b 288 0 313 10 301 0 b 164 7 256 0 238 7 b 13 0 88 7 58 0 b -14 28 -1 0 -14 8 b 11 56 -14 44 -3 53 b 115 132 56 64 88 85 l 274 403 b 274 442 282 417 281 429 l 106 756 b 15 839 78 808 60 828 b -15 869 -3 843 -15 851 b 11 896 -15 886 -4 896 b 190 889 33 896 58 889 b 369 896 288 889 349 896 b 397 869 386 896 397 886 b 371 840 397 854 389 844 b 353 746 317 829 324 800 l 418 622 b 436 624 424 613 429 614 l 514 757 b 489 840 543 806 536 825 b 461 871 475 844 461 853 b 485 896 461 888 472 896 b 619 889 503 896 531 889 b 756 896 704 889 738 896 b 781 869 769 896 781 886 b 754 840 781 853 768 844 b 643 758 703 825 674 811 l 499 510 b 500 472 492 497 493 485 l 675 143 b 778 56 707 85 735 65 b 807 28 796 51 807 43 b 779 0 807 13 797 0 b 619 7 736 0 710 7 b 410 0 496 7 456 0 b 383 28 394 0 383 13 b 410 56 383 44 394 54 b 439 133 465 61 463 90 l 351 296 b 333 296 346 307 340 307 l 240 126 "},"y":{"ha":796,"x_min":0,"x_max":0,"o":"m 86 758 b 19 835 68 808 58 822 b -14 869 1 840 -14 850 b 13 896 -14 886 -1 896 b 178 890 29 896 81 890 b 369 896 290 890 350 896 b 399 868 388 896 399 885 b 368 835 399 851 389 840 b 318 756 314 819 303 803 l 438 392 b 454 392 443 375 449 376 l 569 747 b 499 839 589 806 563 822 b 469 871 482 843 469 853 b 496 896 469 888 481 896 b 647 890 511 896 556 890 b 778 896 725 890 764 896 b 803 871 792 896 803 888 b 772 838 803 853 792 843 b 696 760 736 826 713 813 l 454 21 b 144 -362 382 -201 314 -362 b 1 -267 58 -362 1 -325 b 65 -200 1 -226 26 -200 b 172 -267 122 -200 133 -267 b 321 -10 211 -267 258 -169 b 331 50 331 15 331 33 b 319 101 331 68 326 82 l 86 758 "},"z":{"ha":640,"x_min":0,"x_max":0,"o":"m 374 797 b 358 822 382 815 376 822 l 261 822 b 83 722 146 822 107 793 b 53 692 75 699 67 692 b 29 717 39 692 29 700 b 32 796 29 732 32 757 b 29 872 32 828 29 858 b 67 896 29 889 40 896 b 336 892 104 896 203 892 b 617 896 492 892 586 896 b 646 874 635 896 646 889 b 640 853 646 868 644 861 l 268 99 b 283 74 260 81 265 74 l 418 74 b 593 197 542 74 568 121 b 622 232 603 226 610 232 b 642 203 635 232 642 225 l 640 117 l 642 26 b 607 0 642 8 632 0 b 321 4 572 0 451 4 b 18 0 171 4 56 0 b -8 19 1 0 -8 7 b -4 36 -8 24 -7 29 l 374 797 "},".":{"ha":278,"x_min":0,"x_max":0,"o":"m 144 0 b 44 117 86 0 44 50 b 144 232 44 185 86 232 b 244 117 203 232 244 185 b 144 0 244 50 203 0 "},",":{"ha":278,"x_min":0,"x_max":0,"o":"m 121 -176 b 72 -175 108 -187 86 -189 b 71 -129 60 -162 58 -144 b 138 0 108 -85 178 0 b 56 93 89 0 56 39 b 146 189 56 150 94 189 b 242 78 201 189 242 146 b 121 -176 242 -15 194 -108 "},":":{"ha":417,"x_min":0,"x_max":0,"o":"m 239 0 b 139 117 181 0 139 50 b 239 232 139 185 181 232 b 339 117 297 232 339 185 b 239 0 339 50 297 0 m 239 433 b 139 550 181 433 139 483 b 239 665 139 618 181 665 b 339 550 297 665 339 618 b 239 433 339 483 297 433 "},"!":{"ha":556,"x_min":0,"x_max":0,"o":"m 175 1078 b 285 1194 168 1151 214 1194 b 394 1078 353 1194 401 1151 l 333 389 b 286 344 331 361 318 344 b 236 389 254 344 239 361 l 175 1078 m 285 0 b 185 117 226 0 185 50 b 285 232 185 185 226 232 b 385 117 343 232 385 185 b 285 0 385 50 343 0 "},"?":{"ha":694,"x_min":0,"x_max":0,"o":"m 286 338 b 231 431 251 338 231 374 b 440 978 231 699 440 771 b 350 1135 440 1079 410 1135 b 156 999 250 1135 253 999 b 71 1086 100 999 71 1039 b 271 1217 71 1158 158 1217 b 643 911 496 1217 643 1093 b 326 390 643 706 326 663 b 286 338 326 361 314 338 m 288 232 b 388 115 346 232 388 182 b 288 0 388 47 346 0 b 188 115 229 0 188 47 b 288 232 188 182 229 232 "},"•":{"ha":833,"x_min":0,"x_max":0,"o":"m 419 304 b 269 479 333 304 269 379 b 419 653 269 581 333 653 b 569 479 506 653 569 581 b 419 304 569 379 506 304 "},"/":{"ha":833,"x_min":0,"x_max":0,"o":"m 181 -99 b 142 -126 174 -118 167 -126 l 63 -126 b 43 -92 44 -126 35 -114 l 508 1251 b 540 1275 514 1268 521 1275 l 628 1275 b 646 1246 646 1275 653 1264 l 181 -99 "},"-":{"ha":833,"x_min":0,"x_max":0,"o":"m 233 453 b 268 483 233 472 246 483 l 556 483 b 590 453 578 483 590 472 l 590 403 b 556 372 590 383 578 372 l 268 372 b 233 403 246 372 233 383 l 233 453 "},"&":{"ha":1042,"x_min":0,"x_max":0,"o":"m 894 122 b 1006 56 938 71 964 65 b 1033 26 1022 51 1033 43 b 1004 0 1033 8 1022 0 b 842 7 965 0 913 7 b 643 0 751 7 675 0 b 617 28 628 0 617 11 b 644 56 617 46 629 53 b 640 125 706 67 675 86 l 635 131 b 350 -22 574 32 479 -22 b 1 318 147 -22 1 121 b 228 664 1 485 114 594 b 121 967 156 781 121 882 b 424 1217 121 1118 240 1217 b 701 993 592 1217 701 1129 b 464 689 701 889 642 794 b 669 408 482 661 565 544 b 714 556 690 457 714 521 b 599 639 714 611 672 624 b 575 672 585 642 575 654 b 600 703 575 690 589 703 b 774 697 625 703 661 697 b 947 703 878 697 918 703 b 972 674 961 703 972 692 b 942 639 972 654 963 643 b 808 524 878 626 840 607 l 731 326 b 894 122 785 257 842 186 m 324 1006 b 417 758 324 917 363 828 b 514 1004 481 825 514 908 b 424 1140 514 1090 482 1140 b 324 1006 365 1140 324 1083 m 201 340 b 389 75 201 179 275 75 b 574 207 474 75 535 122 b 275 594 479 325 331 518 b 201 340 238 553 201 471 "},"$":{"ha":694,"x_min":0,"x_max":0,"o":"m 579 858 b 392 1126 560 996 486 1099 l 392 758 b 699 317 529 657 699 556 b 392 -18 699 132 574 6 l 392 -75 b 354 -110 392 -103 368 -110 b 315 -75 340 -110 315 -103 l 315 -22 b 21 101 129 -19 21 43 b 26 265 21 138 26 188 b 21 385 26 322 21 360 b 53 419 21 408 35 419 b 86 392 71 419 81 414 b 315 64 136 192 199 82 l 315 514 b 14 907 179 618 14 699 b 315 1214 14 1079 132 1196 l 315 1275 b 354 1310 315 1304 340 1310 b 392 1275 368 1310 392 1304 l 392 1217 b 643 1115 508 1211 643 1171 b 640 954 643 1082 640 1032 l 643 846 b 617 817 643 824 631 817 b 579 858 601 817 585 822 m 221 1003 b 315 819 221 925 260 869 l 315 1131 b 221 1003 257 1119 221 1072 m 392 65 b 489 213 454 81 489 132 b 392 447 489 317 449 389 l 392 65 "}}}
